<?xml version="1.0" standalone="no"?>
<!DOCTYPE svg PUBLIC "-//W3C//DTD SVG 20010904//EN"
 "http://www.w3.org/TR/2001/REC-SVG-20010904/DTD/svg10.dtd">
<svg version="1.0" xmlns="http://www.w3.org/2000/svg"
 width="24.000000pt" height="24.000000pt" viewBox="0 0 24.000000 24.000000"
 preserveAspectRatio="xMidYMid meet">

<g transform="translate(0.000000,24.000000) scale(0.100000,-0.100000)"
fill="#000000" stroke="none">
<path d="M120 204 c0 -8 -22 -25 -50 -39 -46 -23 -65 -45 -40 -45 6 0 10 -22
10 -48 0 -41 3 -48 20 -48 11 0 20 4 20 8 0 4 -7 8 -15 8 -11 0 -15 11 -15 40
0 22 5 40 11 40 5 0 7 -6 3 -12 -6 -10 -4 -10 7 0 23 21 29 14 29 -36 0 -41 3
-48 20 -48 17 0 20 7 20 48 0 50 6 57 29 36 11 -10 13 -10 7 0 -4 6 -2 12 3
12 17 0 13 -71 -5 -84 -13 -10 -13 -12 5 -12 18 0 21 6 21 48 0 26 5 48 10 48
25 0 6 22 -35 42 -42 21 -58 38 -35 38 6 0 10 4 10 8 0 5 -7 9 -15 9 -8 0 -15
-6 -15 -13z m50 -49 l45 -24 -95 0 -95 0 45 24 c25 13 47 24 50 24 3 0 25 -11
50 -24z m-40 -85 c0 -16 -4 -30 -10 -30 -5 0 -10 14 -10 30 0 17 5 30 10 30 6
0 10 -13 10 -30z"/>
</g>
</svg>
