<?xml version="1.0" standalone="no"?>
<!DOCTYPE svg PUBLIC "-//W3C//DTD SVG 20010904//EN"
 "http://www.w3.org/TR/2001/REC-SVG-20010904/DTD/svg10.dtd">
<svg version="1.0" xmlns="http://www.w3.org/2000/svg"
 width="24.000000pt" height="24.000000pt" viewBox="0 0 24.000000 24.000000"
 preserveAspectRatio="xMidYMid meet">

<g transform="translate(0.000000,24.000000) scale(0.100000,-0.100000)"
fill="#000000" stroke="none">
<path d="M17 223 c-10 -10 -8 -63 2 -63 5 0 12 8 14 18 4 14 6 14 12 -5 4 -13
13 -23 20 -23 8 0 11 -8 8 -20 -4 -14 3 -30 18 -46 19 -20 21 -27 10 -34 -12
-7 -11 -11 2 -25 16 -15 18 -15 34 0 13 14 14 18 2 25 -11 7 -9 14 10 34 15
16 22 32 18 45 -3 13 4 28 19 42 l24 22 0 -21 c0 -12 5 -22 11 -22 6 0 9 16 7
38 -3 35 -5 37 -40 40 -22 2 -38 -1 -38 -7 0 -6 10 -11 22 -11 l22 0 -21 -22
c-23 -22 -83 -31 -83 -12 0 7 -10 15 -22 19 -20 6 -20 8 -5 12 9 2 17 9 17 14
0 10 -53 12 -63 2z m121 -85 c7 -7 12 -17 12 -24 0 -19 -32 -26 -48 -10 -13
12 -13 18 -2 30 15 19 22 20 38 4z"/>
</g>
</svg>
