<?xml version="1.0" standalone="no"?>
<!DOCTYPE svg PUBLIC "-//W3C//DTD SVG 20010904//EN"
 "http://www.w3.org/TR/2001/REC-SVG-20010904/DTD/svg10.dtd">
<svg version="1.0" xmlns="http://www.w3.org/2000/svg"
 width="24.000000pt" height="24.000000pt" viewBox="0 0 24.000000 24.000000"
 preserveAspectRatio="xMidYMid meet">

<g transform="translate(0.000000,24.000000) scale(0.100000,-0.100000)"
fill="#000000" stroke="none">
<path d="M72 209 c-26 -8 -33 -15 -30 -32 3 -19 10 -22 53 -24 45 -2 48 -1 27
11 l-23 12 21 19 c15 14 20 15 21 4 1 -8 2 -21 3 -29 2 -21 45 -25 52 -5 14
37 -60 63 -124 44z m38 -14 c-7 -9 -15 -13 -17 -11 -7 7 7 26 19 26 6 0 6 -6
-2 -15z m-26 -11 c9 -23 8 -24 -14 -24 -19 0 -27 20 -13 33 11 11 20 8 27 -9z"/>
<path d="M36 121 c-9 -10 -16 -24 -15 -32 0 -8 4 -4 9 9 11 26 42 42 48 24 2
-7 9 -9 15 -5 23 14 42 12 60 -8 10 -10 15 -19 12 -19 -3 0 -1 -9 5 -19 7 -14
7 -22 -2 -27 -7 -5 -8 -3 -3 7 5 8 0 7 -12 -4 -31 -27 -39 -20 -12 10 l24 28
-31 -27 c-44 -41 -53 -34 -13 10 l34 37 -35 -32 c-51 -47 -61 -41 -15 9 22 23
32 36 23 29 -14 -11 -18 -11 -18 -1 0 9 -7 7 -22 -6 -12 -10 -18 -13 -13 -5 6
10 4 12 -4 6 -7 -4 -11 -18 -8 -32 4 -22 2 -24 -19 -20 -34 6 -30 0 12 -18 46
-19 82 -19 128 0 29 12 36 20 36 44 0 45 -27 61 -103 60 -49 -1 -70 -6 -81
-18z m74 -24 c0 -2 -10 -12 -22 -23 l-23 -19 19 23 c18 21 26 27 26 19z"/>
</g>
</svg>
