<?xml version="1.0" standalone="no"?>
<!DOCTYPE svg PUBLIC "-//W3C//DTD SVG 20010904//EN"
 "http://www.w3.org/TR/2001/REC-SVG-20010904/DTD/svg10.dtd">
<svg version="1.0" xmlns="http://www.w3.org/2000/svg"
 width="24.000000pt" height="24.000000pt" viewBox="0 0 24.000000 24.000000"
 preserveAspectRatio="xMidYMid meet">

<g transform="translate(0.000000,24.000000) scale(0.100000,-0.100000)"
fill="#000000" stroke="none">
<path d="M73 215 c-33 -14 -63 -59 -63 -95 0 -53 57 -110 110 -110 24 0 84 29
77 37 -3 2 -14 0 -25 -6 -12 -6 -37 -11 -57 -11 -51 0 -85 36 -85 90 0 46 34
90 69 90 11 0 23 5 26 10 9 14 -14 12 -52 -5z"/>
<path d="M112 149 c-2 -40 2 -49 23 -63 14 -9 25 -12 25 -7 0 6 -9 15 -19 21
-14 7 -21 23 -24 53 l-4 42 -1 -46z"/>
<path d="M210 99 c0 -5 5 -7 10 -4 6 3 10 8 10 11 0 2 -4 4 -10 4 -5 0 -10 -5
-10 -11z"/>
</g>
</svg>
