<?xml version="1.0" standalone="no"?>
<!DOCTYPE svg PUBLIC "-//W3C//DTD SVG 20010904//EN"
 "http://www.w3.org/TR/2001/REC-SVG-20010904/DTD/svg10.dtd">
<svg version="1.0" xmlns="http://www.w3.org/2000/svg"
 width="24.000000pt" height="24.000000pt" viewBox="0 0 24.000000 24.000000"
 preserveAspectRatio="xMidYMid meet">

<g transform="translate(0.000000,24.000000) scale(0.100000,-0.100000)"
fill="#000000" stroke="none">
<path d="M15 190 c-12 -13 -15 -35 -13 -90 l3 -72 115 0 115 0 3 72 c4 101 -3
108 -118 108 -72 0 -92 -4 -105 -18z m73 4 c20 -6 22 -12 22 -74 l0 -68 -45
-4 -45 -3 0 67 c0 53 4 69 18 77 20 12 21 12 50 5z m113 -4 c16 -9 19 -22 19
-78 l0 -67 -45 0 -45 0 0 72 c0 60 3 72 18 76 28 8 33 7 53 -3z"/>
</g>
</svg>
