<?xml version="1.0" standalone="no"?>
<!DOCTYPE svg PUBLIC "-//W3C//DTD SVG 20010904//EN"
 "http://www.w3.org/TR/2001/REC-SVG-20010904/DTD/svg10.dtd">
<svg version="1.0" xmlns="http://www.w3.org/2000/svg"
 width="24.000000pt" height="24.000000pt" viewBox="0 0 24.000000 24.000000"
 preserveAspectRatio="xMidYMid meet">

<g transform="translate(0.000000,24.000000) scale(0.100000,-0.100000)"
fill="#000000" stroke="none">
<path d="M63 172 c-52 -25 -53 -27 -53 -69 0 -24 0 -46 0 -50 0 -5 6 -8 12 -8
9 0 12 14 11 40 -1 35 -1 36 5 10 6 -23 14 -31 42 -36 18 -4 52 -4 74 0 33 5
42 11 44 31 2 13 11 30 20 36 10 7 15 14 12 17 -6 6 -108 57 -112 56 -2 0 -27
-12 -55 -27z m97 -12 c22 -11 40 -22 40 -24 0 -2 -18 1 -40 6 -27 7 -53 7 -80
0 -22 -5 -40 -8 -40 -6 0 3 70 42 78 44 1 0 21 -9 42 -20z m18 -50 c2 -12 -10
-15 -58 -15 -36 0 -60 4 -60 11 0 20 14 25 65 22 35 -2 51 -8 53 -18z m-30
-37 c-16 -2 -40 -2 -55 0 -16 2 -3 4 27 4 30 0 43 -2 28 -4z"/>
</g>
</svg>
