<svg width="64" height="70" viewBox="0 0 64 70" fill="none" xmlns="http://www.w3.org/2000/svg">
<g filter="url(#filter0_d_736:3589)">
<path d="M22.776 43.108C21.928 43.108 21.184 42.932 20.544 42.58C19.912 42.228 19.42 41.724 19.068 41.068C18.724 40.412 18.552 39.644 18.552 38.764C18.552 37.892 18.724 37.128 19.068 36.472C19.42 35.816 19.912 35.312 20.544 34.96C21.184 34.608 21.928 34.432 22.776 34.432C23.792 34.432 24.684 34.7 25.452 35.236C25.588 35.332 25.684 35.436 25.74 35.548C25.804 35.66 25.836 35.804 25.836 35.98C25.836 36.228 25.764 36.44 25.62 36.616C25.484 36.784 25.316 36.868 25.116 36.868C24.996 36.868 24.888 36.852 24.792 36.82C24.696 36.78 24.584 36.72 24.456 36.64C24.176 36.472 23.912 36.352 23.664 36.28C23.416 36.208 23.16 36.172 22.896 36.172C22.184 36.172 21.652 36.388 21.3 36.82C20.956 37.244 20.784 37.892 20.784 38.764C20.784 39.644 20.956 40.3 21.3 40.732C21.652 41.156 22.184 41.368 22.896 41.368C23.136 41.368 23.368 41.332 23.592 41.26C23.816 41.18 24.104 41.06 24.456 40.9C24.624 40.812 24.748 40.752 24.828 40.72C24.908 40.688 25.004 40.672 25.116 40.672C25.316 40.672 25.484 40.76 25.62 40.936C25.764 41.104 25.836 41.312 25.836 41.56C25.836 41.728 25.804 41.872 25.74 41.992C25.684 42.104 25.588 42.208 25.452 42.304C24.684 42.84 23.792 43.108 22.776 43.108ZM31.4533 43.108C30.8133 43.108 30.2173 43.04 29.6653 42.904C29.1213 42.76 28.6733 42.564 28.3213 42.316C28.1853 42.212 28.0853 42.104 28.0213 41.992C27.9653 41.88 27.9373 41.736 27.9373 41.56C27.9373 41.32 28.0093 41.112 28.1533 40.936C28.2973 40.76 28.4653 40.672 28.6573 40.672C28.7613 40.672 28.8613 40.688 28.9573 40.72C29.0533 40.752 29.1733 40.812 29.3173 40.9C29.6453 41.084 29.9693 41.216 30.2893 41.296C30.6173 41.376 30.9853 41.416 31.3933 41.416C31.8653 41.416 32.2213 41.348 32.4613 41.212C32.7093 41.068 32.8333 40.86 32.8333 40.588C32.8333 40.404 32.7173 40.248 32.4853 40.12C32.2613 39.984 31.8293 39.852 31.1893 39.724C30.3973 39.556 29.7773 39.356 29.3293 39.124C28.8813 38.892 28.5653 38.62 28.3813 38.308C28.2053 37.988 28.1173 37.604 28.1173 37.156C28.1173 36.644 28.2693 36.18 28.5733 35.764C28.8773 35.348 29.2933 35.024 29.8213 34.792C30.3573 34.552 30.9573 34.432 31.6213 34.432C32.2053 34.432 32.7253 34.496 33.1813 34.624C33.6373 34.752 34.0533 34.952 34.4293 35.224C34.5733 35.328 34.6733 35.44 34.7293 35.56C34.7933 35.672 34.8253 35.812 34.8253 35.98C34.8253 36.22 34.7533 36.428 34.6093 36.604C34.4733 36.78 34.3093 36.868 34.1173 36.868C34.0133 36.868 33.9173 36.856 33.8293 36.832C33.7413 36.8 33.6173 36.736 33.4573 36.64C33.4173 36.616 33.3013 36.556 33.1093 36.46C32.9253 36.356 32.7053 36.276 32.4493 36.22C32.2013 36.156 31.9293 36.124 31.6333 36.124C31.2253 36.124 30.8973 36.204 30.6493 36.364C30.4013 36.516 30.2773 36.72 30.2773 36.976C30.2773 37.128 30.3213 37.252 30.4093 37.348C30.4973 37.444 30.6613 37.54 30.9013 37.636C31.1413 37.724 31.4973 37.816 31.9693 37.912C32.7373 38.08 33.3413 38.284 33.7813 38.524C34.2213 38.756 34.5333 39.028 34.7173 39.34C34.9013 39.652 34.9933 40.02 34.9933 40.444C34.9933 40.972 34.8453 41.44 34.5493 41.848C34.2533 42.248 33.8373 42.56 33.3013 42.784C32.7733 43 32.1573 43.108 31.4533 43.108ZM43.6866 35.056C43.7746 34.864 43.8986 34.72 44.0586 34.624C44.2186 34.528 44.3946 34.48 44.5866 34.48C44.8746 34.48 45.1346 34.572 45.3666 34.756C45.5986 34.94 45.7146 35.172 45.7146 35.452C45.7146 35.588 45.6786 35.728 45.6066 35.872L42.4386 42.412C42.3346 42.628 42.1786 42.796 41.9706 42.916C41.7626 43.028 41.5386 43.084 41.2986 43.084C41.0586 43.084 40.8346 43.028 40.6266 42.916C40.4186 42.796 40.2626 42.628 40.1586 42.412L36.9906 35.872C36.9266 35.744 36.8946 35.604 36.8946 35.452C36.8946 35.18 37.0146 34.952 37.2546 34.768C37.4946 34.576 37.7626 34.48 38.0586 34.48C38.2506 34.48 38.4266 34.528 38.5866 34.624C38.7546 34.72 38.8826 34.864 38.9706 35.056L41.3346 40.168L43.6866 35.056Z" fill="#CD9CF2"/>
<path d="M13.1219 12.25C13.1219 10.5924 13.7804 9.00268 14.9525 7.83058C16.1246 6.65848 17.7143 6 19.3719 6H33.7031C34.9459 6.00109 36.1374 6.49567 37.0156 7.375L49.25 19.6063C50.1293 20.4845 50.6239 21.676 50.625 22.9188V28.1312C51.5376 28.4554 52.3275 29.0542 52.8859 29.8455C53.4444 30.6367 53.7441 31.5815 53.7438 32.55V45.0594C53.7438 46.0282 53.4437 46.9733 52.8847 47.7646C52.3256 48.5559 51.5351 49.1545 50.6219 49.4781V49.75C50.6219 51.4076 49.9634 52.9973 48.7913 54.1694C47.6192 55.3415 46.0295 56 44.3719 56H19.3719C17.7143 56 16.1246 55.3415 14.9525 54.1694C13.7804 52.9973 13.1219 51.4076 13.1219 49.75V49.4781C12.2087 49.1545 11.4181 48.5559 10.8591 47.7646C10.3 46.9733 9.99991 46.0282 10 45.0594V32.55C10.0001 31.5808 10.3007 30.6354 10.8604 29.8441C11.42 29.0527 12.2112 28.4543 13.125 28.1312V12.25H13.1219ZM47.4969 24.75H36.5594C35.3162 24.75 34.1239 24.2561 33.2448 23.3771C32.3657 22.498 31.8719 21.3057 31.8719 20.0625V9.125H19.3719C18.5431 9.125 17.7482 9.45424 17.1622 10.0403C16.5761 10.6263 16.2469 11.4212 16.2469 12.25V27.8625H47.4969V24.75ZM16.2469 49.7469C16.2465 50.1575 16.327 50.5642 16.4839 50.9437C16.6407 51.3232 16.8708 51.6681 17.1611 51.9586C17.4513 52.2491 17.7959 52.4796 18.1753 52.6368C18.5546 52.7941 18.9612 52.875 19.3719 52.875H44.3719C44.7825 52.875 45.1891 52.7941 45.5685 52.6368C45.9478 52.4796 46.2925 52.2491 46.5827 51.9586C46.8729 51.6681 47.103 51.3232 47.2599 50.9437C47.4168 50.5642 47.4973 50.1575 47.4969 49.7469H16.2469ZM34.9969 9.77188V20.0625C34.9969 20.4769 35.1615 20.8743 35.4545 21.1674C35.7475 21.4604 36.145 21.625 36.5594 21.625H46.85L34.9969 9.77188ZM14.6875 30.9875C14.2731 30.9875 13.8757 31.1521 13.5826 31.4451C13.2896 31.7382 13.125 32.1356 13.125 32.55V45.0594C13.125 45.4738 13.2896 45.8712 13.5826 46.1642C13.8757 46.4573 14.2731 46.6219 14.6875 46.6219H49.0594C49.4738 46.6219 49.8712 46.4573 50.1642 46.1642C50.4573 45.8712 50.6219 45.4738 50.6219 45.0594V32.55C50.6219 32.1356 50.4573 31.7382 50.1642 31.4451C49.8712 31.1521 49.4738 30.9875 49.0594 30.9875H14.6844H14.6875Z" fill="#CD9CF2"/>
</g>
<defs>
<filter id="filter0_d_736:3589" x="0" y="0" width="63.7437" height="70" filterUnits="userSpaceOnUse" color-interpolation-filters="sRGB">
<feFlood flood-opacity="0" result="BackgroundImageFix"/>
<feColorMatrix in="SourceAlpha" type="matrix" values="0 0 0 0 0 0 0 0 0 0 0 0 0 0 0 0 0 0 127 0" result="hardAlpha"/>
<feOffset dy="4"/>
<feGaussianBlur stdDeviation="5"/>
<feColorMatrix type="matrix" values="0 0 0 0 0.94456 0 0 0 0 0.87526 0 0 0 0 1 0 0 0 1 0"/>
<feBlend mode="normal" in2="BackgroundImageFix" result="effect1_dropShadow_736:3589"/>
<feBlend mode="normal" in="SourceGraphic" in2="effect1_dropShadow_736:3589" result="shape"/>
</filter>
</defs>
</svg>
